<svg width="169" height="43" viewBox="0 0 169 43" fill="none" xmlns="http://www.w3.org/2000/svg">
<path d="M13.3438 9.29248C13.2927 9.57366 13.0185 9.85323 12.85 10.0692C12.3883 10.6606 11.8732 11.2011 11.3864 11.7707C10.3662 12.9643 9.40366 14.198 8.3784 15.3892C6.84488 17.171 5.19467 18.8526 3.72726 20.6869" stroke="#DC8400" stroke-width="5.71238" stroke-linecap="round"/>
<path d="M16.0106 16.6465C15.509 16.9633 15.1012 17.5267 14.6817 17.9395C13.957 18.6523 13.1721 19.3112 12.4279 20.0046C10.87 21.4563 9.22384 22.819 7.62416 24.2248C6.74624 24.9963 5.78069 25.7666 4.98433 26.6267C4.60286 27.0387 4.2639 27.7454 3.72726 27.9601" stroke="#DC8400" stroke-width="5.71238" stroke-linecap="round"/>
<path d="M16.1722 38.9504C15.6277 38.8267 15.1468 38.1756 14.7535 37.8146C14.085 37.2008 13.3206 36.6358 12.7153 35.9604C12.3685 35.5734 12.1489 35.0654 11.8847 34.6225C11.4229 33.8484 10.8236 33.1795 10.2865 32.4586C8.72597 30.3642 6.83149 28.5619 5.28065 26.4471C4.95687 26.0056 5.14815 26.8667 5.19086 26.9993C5.54588 28.1022 6.45622 28.7226 7.32787 29.3967C7.90157 29.8405 8.56069 30.2042 8.9845 30.8064C9.60288 31.6852 10.2139 32.415 11.0317 33.123C11.7177 33.7168 12.3451 34.3223 12.9757 34.9727C13.5578 35.5732 14.2586 35.95 14.96 36.3824C15.5725 36.7599 16.6 37.4085 16.6616 38.1782C16.6733 38.325 16.8367 38.5994 16.6301 38.6721C16.119 38.8519 15.4722 38.894 15.0004 38.6092C13.5183 37.7143 11.9519 36.5277 10.8387 35.1972C10.1468 34.3704 9.47131 33.5309 8.74655 32.7324C7.97189 31.879 7.11155 31.0305 6.41649 30.1106C6.11512 29.7117 5.67092 28.1326 6.64546 28.8131C7.64768 29.5129 8.58441 30.3363 9.56813 31.0668C10.4625 31.7309 11.2663 32.5356 12.0463 33.3295C12.5632 33.8556 13.1532 34.3011 13.6671 34.829C14.087 35.2604 14.2552 35.8176 14.4752 36.3645C14.7586 37.0689 14.952 37.7935 15.3192 38.4611C15.4934 38.7778 15.6065 39.2352 15.6065 39.5969" stroke="#DC8400" stroke-width="5.71238" stroke-linecap="round"/>
<path d="M24.2319 30.9317C25.64 33.1847 28.0266 34.7408 30.0325 36.4232C30.9748 37.2134 31.7526 38.1712 32.7636 38.8745C33.6486 39.4902 33.9908 39.5757 34.1401 38.2488C34.3457 36.4208 34.302 34.5727 34.302 32.7352C34.302 28.5035 34.3658 24.2791 34.4345 20.0519C34.4679 17.9982 34.89 15.9616 34.9572 13.9126C35.0028 12.5217 34.9646 11.1232 34.9646 9.73145" stroke="#DC8400" stroke-width="5.71238" stroke-linecap="round"/>
<path d="M21.1843 9.99642C21.1843 10.4623 21.1083 11.0317 21.3463 11.4539C21.7528 12.1752 23.0986 12.662 23.8049 13.044C25.4764 13.9479 27.2447 14.6487 28.8989 15.5909C30.3702 16.429 31.6529 17.5395 32.9475 18.609C33.7598 19.28 33.772 19.821 33.772 20.7879C33.772 20.9613 33.8762 21.6727 33.6984 21.7744C33.4965 21.8897 33.3762 21.8781 33.242 22.113C33.1196 22.3272 31.1171 19.8069 30.8864 19.5954C29.8885 18.6807 28.5956 17.7265 27.8094 16.6215C27.1804 15.7375 26.2144 14.9066 25.3581 14.2365C24.5973 13.641 23.8414 13.056 23.0394 12.5213C22.424 12.1111 21.8136 11.7633 21.4788 11.0564C21.1969 10.4612 22.4409 10.2683 22.7449 10.2614C23.825 10.2369 24.2223 11.0038 24.9017 11.7852C26.0162 13.0668 27.6573 13.9373 28.9946 14.9579C30.1657 15.8516 31.6676 16.9429 31.7845 18.5501C31.9096 20.2713 32.7129 22.0232 33.1095 23.703C33.4564 25.1725 33.3745 26.7172 33.3745 28.2154C33.3745 29.8173 33.503 31.3394 32.9107 32.853C32.7151 33.3529 32.1351 34.5643 31.5047 34.6344C30.542 34.7413 29.9457 34.146 29.1271 33.7878C28.64 33.5747 27.0875 33.1878 27.6033 33.3167C28.9499 33.6534 30.2524 33.5656 31.5489 34.1706C32.5303 34.6286 33.2269 36.1541 33.9119 36.9532C34.6791 37.8483 34.567 34.262 34.567 34.0381C34.567 32.0335 34.6204 30.0205 34.567 28.0167C34.5224 26.3444 33.9298 24.5737 33.6395 22.9227C33.3115 21.0573 33.7296 18.7138 32.9181 16.9748C32.3136 15.6794 32.3451 13.1735 32.8739 11.8514C33.0732 11.3533 33.0692 10.7965 33.2714 10.2909C33.4593 9.8213 33.6462 9.51079 33.4334 10.2099C33.0031 11.6237 33.1599 13.394 33.3156 14.8401C33.4705 16.2781 33.507 17.6956 33.507 19.139" stroke="#DC8400" stroke-width="5.71238" stroke-linecap="round"/>
<path d="M44.4561 39.5161C44.6763 38.6905 44.4561 37.7667 44.4561 36.9212C44.4561 36.3197 44.4506 35.7179 44.4561 35.1164C44.4771 32.8323 44.9706 30.5661 45.0263 28.2834C45.0543 27.1333 45.1834 25.9984 45.1834 24.8444C45.1834 23.2686 45.1099 21.6963 45.1026 20.1214C45.0923 17.9033 45.0409 15.672 45.1071 13.4545C45.1465 12.1346 45.1834 10.8207 45.1834 9.49924C45.1834 9.32864 45.1834 9.15804 45.1834 8.98744C45.1834 8.63096 45.3281 9.68956 45.4618 10.02C46.254 11.9786 47.9254 13.3277 49.3856 14.7879" stroke="#DC8400" stroke-width="5.71238" stroke-linecap="round"/>
<path d="M47.7694 31.0313C48.5448 30.481 49.1565 29.745 49.9468 29.2131C50.6254 28.7563 51.2268 28.1706 51.8369 27.6283C52.2922 27.2236 52.7371 26.8086 53.1748 26.3847C53.5853 25.987 54.0661 25.5655 54.4139 25.1141C55.1121 24.208 56.0108 23.4969 56.7035 22.582C56.9565 22.2479 57.2237 21.762 57.2019 21.325C57.1785 20.8577 56.7631 20.4356 56.4791 20.1038C56.0501 19.6028 55.5893 19.1333 55.1232 18.6672C52.9526 16.4965 51.2258 13.9622 49.0175 11.8341C48.6992 11.5274 48.3243 11.3026 48.0073 10.9856C47.6275 10.6058 47.2128 10.1966 46.7817 9.87672C46.6383 9.77029 46.2119 9.38039 46.023 9.59837C45.3811 10.3391 46 11.2631 46.4899 11.8566C47.2235 12.7454 48.1269 13.4568 48.8559 14.3393C49.3208 14.9022 49.6245 15.5247 50.0321 16.1216C50.7258 17.1373 51.5344 18.0921 52.3397 19.0263C53.0553 19.8565 53.6469 20.7158 54.149 21.6886C54.6067 22.5754 53.6665 23.1139 53.085 23.6954C52.7007 24.0797 52.2137 24.3813 51.8863 24.8178C51.4532 25.3953 50.946 25.9417 50.4721 26.4879C49.9716 27.0648 49.4675 27.6325 48.9546 28.1984C48.6213 28.5662 48.2048 29.0888 48.0118 29.5498C47.7027 30.2883 47.4571 31.0572 47.1229 31.7855C46.8039 32.4809 46.2978 33.15 45.8838 33.7924C45.4809 34.4175 44.919 34.92 44.537 35.5567" stroke="#DC8400" stroke-width="5.71238" stroke-linecap="round"/>
<path d="M63.1107 30.3608C63.8519 31.9491 65.7511 32.2672 66.7554 33.5226C67.3261 34.236 67.9076 35.0755 68.641 35.6382C69.656 36.4168 70.6287 37.2566 71.6534 38.0182C72.1269 38.3701 72.7177 38.8764 73.332 38.9322C74.0525 38.9977 73.8256 34.2602 73.8264 33.8561C73.8317 31.141 73.3301 28.4765 73.171 25.7733C73.0391 23.5302 73.3178 21.294 73.4355 19.0588C73.5912 16.1011 73.6654 13.1451 73.6654 10.1827C73.6654 10.1157 73.6654 9.4064 73.6654 9.78026C73.6654 10.7628 73.5826 11.7416 73.562 12.7236C73.5343 14.0412 73.2008 15.3372 72.9871 16.6328C72.8557 17.4294 73.144 18.1906 72.4237 18.6908C71.6537 19.2256 70.38 18.0788 69.7103 17.702C68.4907 17.016 67.412 16.0945 66.2495 15.3106C65.073 14.5171 64.1078 13.5365 62.8808 12.8271C62.4377 12.5709 59.2416 10.7591 59.9259 9.99871C60.2632 9.6239 61.6801 10.7516 61.9035 10.884C62.4058 11.1817 62.8156 11.6776 63.2659 12.051C63.8547 12.5393 64.4818 12.9605 65.0768 13.4365C65.7187 13.95 66.2656 14.5522 66.9336 15.0404C67.6241 15.545 68.1088 16.084 68.572 16.8052C69.2381 17.8422 70.2055 19.0346 70.5036 20.243C71.0762 22.5636 71.1596 25.0932 71.3659 27.4864C71.4771 28.7756 71.6171 30.112 71.3889 31.3956C71.2438 32.212 71.2839 33.5883 70.5611 34.1665C70.2696 34.3997 69.8778 34.4226 69.5206 34.3849C69.4348 34.3759 68.4623 34.0434 68.4571 34.0515C68.3046 34.2911 69.22 34.8321 69.3654 34.9023C69.8038 35.114 70.4172 35.0369 70.8256 34.7874C72.1067 34.0044 72.1049 31.4664 72.2742 30.1654C72.6192 27.5144 72.745 24.859 72.7341 22.1861C72.7242 19.7292 72.6307 17.2744 72.6307 14.8162C72.6307 13.5811 72.5518 12.3398 72.7916 11.1255C72.8537 10.8114 72.7224 10.3046 72.8951 10.0332C72.9842 9.8932 73.1437 9.80958 73.2285 9.66528C73.3985 9.37626 73.7595 9.70289 73.8724 9.87224" stroke="#DC8400" stroke-width="5.71238" stroke-linecap="round"/>
<path d="M83.4958 39.6743C83.4958 38.4288 83.6329 37.2065 83.7028 35.9664C83.7803 34.5901 84.1167 33.2372 84.1167 31.8617C84.1167 29.2796 84.1189 26.7123 84.4788 24.1527C84.6473 22.9545 84.7325 21.5716 85.3239 20.4907C85.9268 19.3889 87.0643 18.6251 88.0028 17.8348C90.0509 16.1101 91.9248 14.201 93.9758 12.4769C94.2023 12.2865 95.331 11.0552 95.7062 11.4709C96.4523 12.2977 96.5458 14.1195 96.6145 15.1731C96.8221 18.3565 96.4931 21.6283 96.35 24.808C96.1291 29.7181 96.8444 34.5831 96.8444 39.4674" stroke="#DC8400" stroke-width="5.71238" stroke-linecap="round"/>
<path d="M113.401 39.6741C113.401 34.0844 113.401 28.4946 113.401 22.9049C113.401 19.9368 113.558 17.021 113.711 14.0633C113.782 12.7024 114.022 11.3354 114.022 9.97597C114.022 9.11008 114.01 9.93582 114.137 10.2979C114.393 11.0313 114.587 12.0045 115.079 12.6204C115.444 13.0765 116.043 13.3174 116.505 13.6552C117.002 14.018 117.494 14.4252 117.954 14.8337C118.332 15.1699 118.785 15.4127 119.219 15.6672C119.882 16.057 120.452 16.5762 121.052 17.0527C121.726 17.5878 122.425 18.1993 123.128 18.6681" stroke="#DC8400" stroke-width="5.71238" stroke-linecap="round"/>
<path d="M104.088 18.9789C106.333 17.2222 108.468 15.3067 110.63 13.4486C111.385 12.7995 112.142 12.1471 112.826 11.425C112.958 11.2856 113.7 10.2728 113.711 10.4132C113.768 11.1255 115.214 11.3579 115.7 11.678C116.463 12.1802 117.195 12.8569 117.85 13.4946C118.34 13.9712 118.72 14.5179 119.115 15.0697C119.453 15.5411 119.84 16.1993 120.334 16.4954" stroke="#DC8400" stroke-width="5.71238" stroke-linecap="round"/>
<path d="M130.682 38.64C130.682 35.3753 130.809 32.0794 130.94 28.8154C131.002 27.2873 131.096 25.7631 131.096 24.2336C131.096 23.2451 131.125 22.3552 131.412 21.4052C131.922 19.716 133.138 18.6081 134.395 17.4616C136.361 15.6688 138.242 13.8217 139.926 11.7588C140.585 10.9505 141.654 9.74433 142.208 11.3104C142.694 12.6847 142.478 14.3469 142.478 15.7829C142.478 17.8708 142.338 19.936 142.283 22.0203C142.142 27.3264 142.892 32.6094 142.892 37.9157" stroke="#DC8400" stroke-width="5.71238" stroke-linecap="round"/>
<path d="M133.579 29.4294C133.74 29.0277 134.585 28.7097 134.924 28.4521C135.862 27.74 136.743 26.9394 137.649 26.1871C138.753 25.2709 139.675 24.2014 140.604 23.1173C141.161 22.4672 140.678 23.0163 140.38 23.2955C139.562 24.0619 138.83 24.9626 137.925 25.6238C136.085 26.9678 134.362 28.3364 132.751 29.9468C132.322 30.3762 130.987 31.6001 131.492 31.2633C132.129 30.8388 132.627 30.1201 133.228 29.6306C134.133 28.8946 135.048 28.11 136.022 27.4691C136.93 26.8723 137.895 26.4507 138.73 25.7502C139.378 25.2065 140.462 24.7852 140.817 23.9566C141.061 23.3871 140.898 22.6695 141.133 22.0825" stroke="#DC8400" stroke-width="5.71238" stroke-linecap="round"/>
<path d="M152.626 38.882C152.768 32.2695 153.189 25.6352 153.657 19.0362C153.865 16.1006 154.084 7.27449 154.084 10.2175C154.084 11.9253 154.084 13.6331 154.084 15.3409C154.084 15.6942 153.745 18.0793 154.172 18.0793C155.697 18.0793 157.276 16.4647 158.221 15.4292C158.925 14.6567 159.624 13.8797 160.355 13.1325C160.812 12.6665 161.234 11.9572 161.835 11.6677C162.735 11.2343 163.437 10.6749 164.271 10.1439C164.799 9.80822 165.161 9.39388 165.273 10.1881C165.444 11.41 165.346 12.6903 165.346 13.9202C165.346 15.5522 165.444 17.1772 165.471 18.808C165.511 21.1475 165.351 23.5123 165.744 25.8306C166.229 28.6929 165.876 31.8677 165.876 34.7745C165.876 36.0112 165.876 37.2479 165.876 38.4845" stroke="#DC8400" stroke-width="5.71238" stroke-linecap="round"/>
<path d="M161.106 25.6316C159.534 26.7978 157.851 27.9525 156.439 29.3122C155.707 30.0173 154.797 30.5425 154.084 31.2556C153.146 32.1927 154.888 30.7558 155.099 30.5931C156.794 29.2871 158.261 27.7708 159.914 26.4266C161.141 25.4285 162.4 24.5044 163.535 23.4012C163.821 23.1239 164.419 22.7073 164.419 22.2896C164.419 20.4164 164.551 18.5444 164.551 16.6657C164.551 15.8998 164.506 14.8978 164.213 14.1849C163.847 13.2968 162.481 14.5046 162.063 14.7959C161.013 15.5276 159.952 16.2195 158.905 16.9601C157.877 17.6872 156.962 18.4926 155.968 19.2421C153.827 20.8566 153.231 23.3636 153.053 25.9408C153.012 26.5363 152.713 28.3833 153.642 28.5319C154.762 28.7112 156.338 29.0608 157.396 28.5319C159.668 27.3959 161.249 25.1524 162.1 22.7902C162.281 22.2874 162.665 21.9497 162.932 21.4946C163.425 20.6546 163.707 19.6695 163.955 18.7342C164.309 17.397 164.598 16.0032 165.398 14.8474C165.827 14.228 165.744 13.559 165.744 12.8378C165.744 11.8609 165.695 10.8925 165.869 9.93753C166.06 8.88495 165.876 12.0772 165.876 13.147C165.876 14.5456 165.876 15.9443 165.876 17.3429C165.876 19.7274 165.998 22.1444 165.552 24.498C165.333 25.6581 165.479 26.9422 165.479 28.1197C165.479 29.322 165.479 30.5244 165.479 31.7267" stroke="#DC8400" stroke-width="5.71238" stroke-linecap="round"/>
<path d="M3.08081 39.1932C3.08081 36.5231 3 33.8517 3 31.1794C3 29.2032 3.16544 27.2306 3.26039 25.2577C3.36485 23.0874 3.32324 20.9114 3.32324 18.739C3.32324 16.9679 3.42434 15.2199 3.48038 13.4548C3.52434 12.07 3.68826 10.6886 3.72281 9.30649C3.75604 7.9775 3.88892 6.66609 3.88892 5.33327C3.88892 4.54218 4.05055 3.76974 4.05055 2.98975" stroke="#DC8400" stroke-width="5.71238" stroke-linecap="round"/>
</svg>
