<svg width="224" height="38" viewBox="0 0 224 38" fill="none" xmlns="http://www.w3.org/2000/svg">
<path d="M34.7931 25.9317C36.2012 28.1847 38.5878 29.7408 40.5937 31.4232C41.536 32.2134 42.3138 33.1712 43.3247 33.8745C44.2098 34.4902 44.552 34.5757 44.7013 33.2488C44.9069 31.4208 44.8632 29.5727 44.8632 27.7352C44.8632 23.5035 44.927 19.2791 44.9957 15.0519C45.0291 12.9982 45.4512 10.9616 45.5184 8.91261C45.564 7.52166 45.5257 6.12321 45.5257 4.73145" stroke="#DC8400" stroke-width="5" stroke-linecap="round"/>
<path d="M31.7455 4.99642C31.7455 5.46235 31.6695 6.0317 31.9075 6.45394C32.314 7.17523 33.6598 7.66198 34.3661 8.04396C36.0376 8.94792 37.8059 9.64868 39.4601 10.5909C40.9314 11.429 42.2141 12.5395 43.5087 13.609C44.321 14.28 44.3332 14.821 44.3332 15.7879C44.3332 15.9613 44.4374 16.6727 44.2596 16.7744C44.0577 16.8897 43.9374 16.8781 43.8032 17.113C43.6808 17.3272 41.6783 14.8069 41.4476 14.5954C40.4497 13.6807 39.1568 12.7265 38.3706 11.6215C37.7416 10.7375 36.7756 9.90662 35.9193 9.23648C35.1585 8.64104 34.4026 8.05602 33.6005 7.52132C32.9852 7.11108 32.3748 6.76331 32.04 6.05644C31.758 5.46124 33.0021 5.26834 33.3061 5.26143C34.3862 5.23688 34.7835 6.0038 35.4629 6.7852C36.5774 8.06681 38.2185 8.93732 39.5558 9.95787C40.7269 10.8516 42.2288 11.9429 42.3457 13.5501C42.4708 15.2713 43.2741 17.0232 43.6707 18.703C44.0176 20.1725 43.9357 21.7172 43.9357 23.2154C43.9357 24.8173 44.0642 26.3394 43.4719 27.853C43.2763 28.3529 43.4956 31.2404 42.8653 31.3105C41.9025 31.4174 39.8798 30.3581 39.0612 30C38.5741 29.7869 34.0612 26 37.0612 28.3167C38.4078 28.6534 40.7409 30.6172 41.5612 31C42.5425 31.458 43.5158 33.2009 44.2007 34C44.968 34.8952 45.1282 29.262 45.1282 29.0381C45.1282 27.0335 45.1816 25.0205 45.1282 23.0167C45.0836 21.3444 44.491 19.5737 44.2007 17.9227C43.8727 16.0573 44.2908 13.7138 43.4793 11.9748C42.8748 10.6794 42.9063 8.17347 43.4351 6.85145C43.6344 6.35329 43.6304 5.79649 43.8326 5.29087C44.0205 4.8213 44.2073 4.51079 43.9946 5.2099C43.5643 6.62366 43.7211 8.39403 43.8768 9.8401C44.0317 11.2781 44.0682 12.6956 44.0682 14.139" stroke="#DC8400" stroke-width="5" stroke-linecap="round"/>
<path d="M60.5432 34.5161C60.7634 33.6905 60.5432 32.7667 60.5432 31.9212C60.5432 31.3197 60.5377 30.7179 60.5432 30.1164C60.5642 27.8323 61.0577 25.5661 61.1134 23.2834C61.1414 22.1333 61.2705 20.9984 61.2705 19.8444C61.2705 18.2686 61.197 16.6963 61.1897 15.1214C61.1794 12.9033 61.128 10.672 61.1942 8.4545C61.2336 7.13457 61.2705 5.82069 61.2705 4.49924C61.2705 4.32864 61.2705 4.15804 61.2705 3.98744C61.2705 3.63096 61.4152 4.68956 61.5489 5.02003C62.3411 6.97859 64.0125 8.32774 65.4727 9.78789" stroke="#DC8400" stroke-width="5" stroke-linecap="round"/>
<path d="M63.8565 26.0313C64.6319 25.481 65.2436 24.745 66.0339 24.2131C66.7125 23.7563 67.3139 23.1706 67.924 22.6283C68.3793 22.2236 68.8242 21.8086 69.2619 21.3847C69.6724 20.987 70.1532 20.5655 70.501 20.1141C71.1992 19.208 72.0979 18.4969 72.7906 17.582C73.0436 17.2479 73.3108 16.762 73.289 16.325C73.2656 15.8577 72.8502 15.4356 72.5662 15.1038C72.1372 14.6028 71.6764 14.1333 71.2103 13.6672C69.0397 11.4965 67.3129 8.96218 65.1046 6.83415C64.7862 6.52739 64.4114 6.30262 64.0944 5.98563C63.7146 5.60581 63.2999 5.19657 62.8688 4.87672C62.7254 4.77029 62.299 4.38039 62.1101 4.59837C61.4682 5.33906 62.0871 6.26311 62.577 6.8566C63.3106 7.74536 64.214 8.45681 64.943 9.3393C65.4079 9.90217 65.7116 10.5247 66.1192 11.1216C66.8129 12.1373 67.6215 13.0921 68.4268 14.0263C69.1424 14.8565 69.734 15.7158 70.2361 16.6886C70.6938 17.5754 69.7536 18.1139 69.1721 18.6954C68.7878 19.0797 68.3008 19.3813 67.9734 19.8178C67.5403 20.3953 67.0331 20.9417 66.5592 21.4879C66.0587 22.0648 65.5546 22.6325 65.0417 23.1984C64.7084 23.5662 64.2919 24.0888 64.0989 24.5498C63.7898 25.2883 63.5442 26.0572 63.21 26.7855C62.891 27.4809 62.3849 28.15 61.9709 28.7924C61.568 29.4175 61.0061 29.92 60.6241 30.5567" stroke="#DC8400" stroke-width="5" stroke-linecap="round"/>
<path d="M91.5707 25.3606C93.0186 28.4631 97.3632 30.9739 100.113 33.018C100.587 33.3699 101.178 33.8762 101.792 33.932C102.512 33.9975 102.286 29.26 102.286 28.8559C102.292 26.1408 101.79 23.4763 101.631 20.7731C101.156 12.6973 101.586 5.16756 101.72 5.00198C101.928 4.7448 103.039 15.27 96.4292 10.8122C95.2527 10.0187 92.5678 8.53629 91.3408 7.8269C90.8977 7.57074 87.7015 5.7589 88.3859 4.99851C88.9624 4.35795 91.2572 6.6621 91.7259 7.05082C92.9345 8.05306 94.1262 9.11399 95.3936 10.0402C96.9198 11.1555 99.6667 15.3757 100.113 17.1859C101.847 24.2125 102.318 26.4426 102.311 31.4995C102.304 36.5565 101.23 26.1183 101.194 17.1859" stroke="#DC8400" stroke-width="5" stroke-linecap="round"/>
<path d="M117.32 34C117.32 32.7545 117.453 32.2065 117.522 30.9664C117.6 29.5901 117.936 28.2372 117.936 26.8617C117.936 24.2796 117.939 21.7123 118.299 19.1527C118.467 17.9545 118.552 16.5716 119.144 15.4907C119.746 14.3889 120.884 13.6251 121.822 12.8348C123.871 11.1101 125.744 9.20097 127.795 7.47693C128.022 7.28654 129.151 6.05519 129.526 6.4709C130.272 7.29771 130.365 9.11952 130.434 10.1731C130.642 13.3565 130.313 16.6283 130.17 19.808C129.949 24.7181 130.82 29.1157 130.82 34" stroke="#DC8400" stroke-width="5" stroke-linecap="round"/>
<path d="M154.82 35C154.82 29.4252 154.82 23.8504 154.82 18.2756C154.82 15.3154 154.997 12.4074 155.171 9.45766C155.251 8.10035 155.522 6.73701 155.522 5.3812C155.522 4.51762 155.509 5.34116 155.652 5.70228C155.942 6.43376 156.161 7.40432 156.718 8.01857C157.131 8.47349 157.808 8.71372 158.33 9.05059C158.892 9.41244 159.449 9.81851 159.969 10.2259C160.396 10.5613 160.909 10.8034 161.399 11.0573C162.149 11.446 162.794 11.9638 163.473 12.439C164.235 12.9727 165.024 13.5826 165.82 14.0501" stroke="#DC8400" stroke-width="5" stroke-linecap="round"/>
<path d="M145.82 15.5789C148.064 13.8222 150.2 11.9067 152.362 10.0486C153.117 9.39953 153.874 8.74713 154.558 8.02503C154.69 7.8856 155.82 6 155.443 7.01325C155.5 7.72553 156.334 7.70502 156.82 8.02503C157.582 8.52726 158.164 8.86229 158.82 9.49992C159.31 9.97657 160.424 10.4481 160.82 10.9999C161.157 11.4713 164.826 13.2038 165.32 13.4999" stroke="#DC8400" stroke-width="5" stroke-linecap="round"/>
<path d="M180.82 33.64C180.82 30.3753 180.947 27.0794 181.078 23.8154C181.14 22.2873 181.234 20.7631 181.234 19.2336C181.234 18.2451 181.263 17.3552 181.55 16.4052C182.06 14.716 183.276 13.6081 184.533 12.4616C186.499 10.6688 188.38 8.82169 190.064 6.7588C190.723 5.95053 191.792 4.74433 192.346 6.3104C192.832 7.68472 192.616 9.34693 192.616 10.7829C192.616 12.8708 192.476 14.936 192.421 17.0203C192.28 22.3264 193.03 27.6094 193.03 32.9157" stroke="#DC8400" stroke-width="5" stroke-linecap="round"/>
<path d="M183.619 23.5666C183.8 23.2623 184.753 23.0213 185.136 22.8262C186.193 22.2865 187.187 21.68 188.209 21.11C189.454 20.4158 190.494 19.6055 191.542 18.784C192.17 18.2914 191.625 18.7075 191.289 18.9191C190.367 19.4997 189.541 20.1822 188.52 20.6831C186.445 21.7015 184.501 22.7385 182.685 23.9587C182.201 24.284 180.695 25.2113 181.265 24.9561C181.983 24.6345 182.545 24.0899 183.223 23.7191C184.243 23.1614 185.275 22.5669 186.374 22.0813C187.398 21.6291 188.486 21.3097 189.428 20.779C190.159 20.367 191.381 20.0478 191.781 19.42C192.057 18.9884 191.873 18.4447 192.138 18" stroke="#DC8400" stroke-width="5" stroke-linecap="round"/>
<path d="M208.03 33.882C208.172 27.2695 208.593 20.6352 209.061 14.0362C209.269 11.1006 209.488 2.27449 209.488 5.2175C209.488 6.9253 209.488 8.6331 209.488 10.3409C209.488 10.6942 209.149 13.0793 209.576 13.0793C211.101 13.0793 212.68 11.4647 213.625 10.4292C214.329 9.65667 215.028 8.8797 215.759 8.13254C216.216 7.66653 216.638 6.95718 217.239 6.66766C218.139 6.23428 218.841 5.67487 219.675 5.14389C220.203 4.80822 220.565 4.39388 220.677 5.18806C220.848 6.40998 220.75 7.69031 220.75 8.92019C220.75 10.5522 220.848 12.1772 220.875 13.808C220.915 16.1475 220.887 19.6816 221.28 22C221.28 25 220.875 27.5 221.28 29.7745C221.28 31.0112 221.28 32.2479 221.28 33.4845" stroke="#DC8400" stroke-width="5" stroke-linecap="round"/>
<path d="M216.51 20.6316C214.938 21.7978 213.255 22.9525 211.843 24.3122C211.111 25.0173 210.201 25.5425 209.488 26.2556C208.55 27.1927 210.292 25.7558 210.503 25.5931C212.198 24.2871 213.665 22.7708 215.318 21.4266C216.545 20.4285 217.804 19.5044 218.939 18.4012C219.225 18.1239 219.823 17.7073 219.823 17.2896C219.823 15.4164 219.955 13.5444 219.955 11.6657C219.955 10.8998 219.91 9.89777 219.617 9.18494C219.251 8.29683 217.885 9.50457 217.467 9.79592C216.417 10.5276 215.356 11.2195 214.309 11.9601C213.281 12.6872 212.366 13.4926 211.372 14.2421C209.231 15.8566 208.635 18.3636 208.457 20.9408C208.416 21.5363 208.117 23.3833 209.046 23.5319C210.166 23.7112 211.742 24.0608 212.8 23.5319C215.072 22.3959 216.653 20.1524 217.504 17.7902C217.685 17.2874 218.069 16.9497 218.336 16.4946C218.829 15.6546 219.111 14.6695 219.359 13.7342C219.713 12.397 220.002 11.0032 220.802 9.84745C221.231 9.22795 221.148 8.55904 221.148 7.83784C221.148 6.86089 221.099 5.89253 221.273 4.93753C221.464 3.88495 221.28 7.07718 221.28 8.14701C221.28 9.54564 221.28 10.9443 221.28 12.3429C221.28 14.7274 221.402 17.1444 220.956 19.498C220.737 20.6581 220.883 21.9422 220.883 23.1197C220.883 24.322 220.883 25.5244 220.883 26.7267" stroke="#DC8400" stroke-width="5" stroke-linecap="round"/>
<path d="M13.3438 4.29248C13.2927 4.57366 13.0185 4.85323 12.85 5.06917C12.3883 5.66064 11.8732 6.20111 11.3864 6.77069C10.3662 7.96427 9.40366 9.19798 8.3784 10.3892C6.84488 12.171 5.19467 13.8526 3.72726 15.6869" stroke="#DC8400" stroke-width="5" stroke-linecap="round"/>
<path d="M16.0106 11.6465C15.509 11.9633 15.1012 12.5267 14.6817 12.9395C13.957 13.6523 13.1721 14.3112 12.4279 15.0046C10.87 16.4563 9.22384 17.819 7.62416 19.2248C6.74624 19.9963 5.78069 20.7666 4.98433 21.6267C4.60286 22.0387 4.2639 22.7454 3.72726 22.9601" stroke="#DC8400" stroke-width="5" stroke-linecap="round"/>
<path d="M16.1722 33.9504C15.6277 33.8267 15.1468 33.1756 14.7535 32.8146C14.085 32.2008 13.3206 31.6358 12.7153 30.9604C12.3685 30.5734 12.1489 30.0654 11.8847 29.6225C11.4229 28.8484 10.8236 28.1795 10.2865 27.4586C8.72597 25.3642 6.83149 23.5619 5.28065 21.4471C4.95687 21.0056 5.14815 21.8667 5.19086 21.9993C5.54588 23.1022 6.45622 23.7226 7.32787 24.3967C7.90157 24.8405 8.56069 25.2042 8.9845 25.8064C9.60288 26.6852 10.2139 27.415 11.0317 28.123C11.7177 28.7168 12.3451 29.3223 12.9757 29.9727C13.5578 30.5732 14.2586 30.95 14.96 31.3824C15.5725 31.7599 16.6 32.4085 16.6616 33.1782C16.6733 33.325 16.8367 33.5994 16.6301 33.6721C16.119 33.8519 15.4722 33.894 15.0004 33.6092C13.5183 32.7143 11.9519 31.5277 10.8387 30.1972C10.1468 29.3704 9.47131 28.5309 8.74655 27.7324C7.97189 26.879 7.11155 26.0305 6.41649 25.1106C6.11512 24.7117 5.67092 23.1326 6.64546 23.8131C7.64768 24.5129 8.58441 25.3363 9.56813 26.0668C10.4625 26.7309 11.2663 27.5356 12.0463 28.3295C12.5632 28.8556 13.1532 29.3011 13.6671 29.829C14.087 30.2604 14.2552 30.8176 14.4752 31.3645C14.7586 32.0689 14.952 32.7935 15.3192 33.4611C15.4934 33.7778 15.6065 34.2352 15.6065 34.5969" stroke="#DC8400" stroke-width="5" stroke-linecap="round"/>
<path d="M3.07692 34C3.07692 31.7137 3 29.4263 3 27.138C3 25.4459 3.15748 23.7568 3.24786 22.0675C3.34729 20.209 3.30769 18.3459 3.30769 16.4856C3.30769 14.9691 3.40393 13.4723 3.45726 11.9609C3.49911 10.7752 3.65514 9.59235 3.68803 8.40885C3.71966 7.27088 3.84615 6.14795 3.84615 5.0067C3.84615 4.32931 4 3.66789 4 3" stroke="#DC8400" stroke-width="5" stroke-linecap="round"/>
</svg>
