<svg width="24" height="23" viewBox="0 0 24 23" fill="none" xmlns="http://www.w3.org/2000/svg">
<path d="M22.5447 11.3279L12.5489 1.22998C12.4769 1.15708 12.3914 1.09924 12.2973 1.05978C12.2032 1.02031 12.1023 1 12.0005 1C11.8986 1 11.7977 1.02031 11.7036 1.05978C11.6095 1.09924 11.524 1.15708 11.452 1.22998L1.45623 11.3279C1.16502 11.6224 1 12.0222 1 12.4393C1 13.3053 1.69648 14.0095 2.55312 14.0095H3.60633V21.2149C3.60633 21.6492 3.95335 22 4.38289 22H10.4473V16.5045H13.1653V22H19.618C20.0476 22 20.3946 21.6492 20.3946 21.2149V14.0095H21.4478C21.8603 14.0095 22.2559 13.8451 22.5471 13.5482C23.1514 12.9349 23.1514 11.9413 22.5447 11.3279Z" stroke="#DC8400" stroke-width="2"/>
</svg>
