<svg width="20" height="20" viewBox="0 0 20 20" fill="none" xmlns="http://www.w3.org/2000/svg">
<path d="M3 0.00100017H17C17.7956 0.00100017 18.5587 0.317071 19.1213 0.87968C19.6839 1.44229 20 2.20535 20 3.001V11.001C20 11.7966 19.6839 12.5597 19.1213 13.1223C18.5587 13.6849 17.7956 14.001 17 14.001H10.042L3.598 18.809C3.44922 18.92 3.27248 18.9874 3.08756 19.0037C2.90265 19.0199 2.71686 18.9844 2.551 18.901C2.38513 18.8177 2.24574 18.6898 2.14843 18.5317C2.05111 18.3737 1.99972 18.1916 2 18.006V14C1.46957 14 0.960859 13.7893 0.585786 13.4142C0.210714 13.0391 0 12.5304 0 12V3C0 2.20435 0.316071 1.44129 0.87868 0.87868C1.44129 0.316071 2.20435 0 3 0V0.00100017Z" fill="#DC8400"/>
</svg>
