<svg width="28" height="29" viewBox="0 0 28 29" fill="none" xmlns="http://www.w3.org/2000/svg">
<path d="M19.8759 0.0949707H8.13805C3.03951 0.0949707 0 3.13297 0 8.22897V19.947C0 25.057 3.03951 28.095 8.13805 28.095H19.8619C24.9604 28.095 28 25.057 28 19.961V8.22897C28.014 3.13297 24.9744 0.0949707 19.8759 0.0949707ZM7.88593 22.705C7.88593 23.279 7.40969 23.755 6.83541 23.755C6.26112 23.755 5.78488 23.279 5.78488 22.705V19.807C5.78488 19.233 6.26112 18.757 6.83541 18.757C7.40969 18.757 7.88593 19.233 7.88593 19.807V22.705ZM15.0575 22.705C15.0575 23.279 14.5813 23.755 14.007 23.755C13.4327 23.755 12.9565 23.279 12.9565 22.705V16.895C12.9565 16.321 13.4327 15.845 14.007 15.845C14.5813 15.845 15.0575 16.321 15.0575 16.895V22.705ZM22.2291 22.705C22.2291 23.279 21.7528 23.755 21.1786 23.755C20.6043 23.755 20.128 23.279 20.128 22.705V13.997C20.128 13.423 20.6043 12.947 21.1786 12.947C21.7528 12.947 22.2291 13.423 22.2291 13.997V22.705ZM22.2291 9.57297C22.2291 10.147 21.7528 10.623 21.1786 10.623C20.6043 10.623 20.128 10.147 20.128 9.57297V8.21497C16.5563 11.883 12.088 14.473 7.08753 15.719C7.00349 15.747 6.91945 15.747 6.83541 15.747C6.35917 15.747 5.93896 15.425 5.8129 14.949C5.67283 14.389 6.00899 13.815 6.58328 13.675C11.3036 12.499 15.5057 10.021 18.8394 6.52097H17.0885C16.5142 6.52097 16.038 6.04497 16.038 5.47097C16.038 4.89697 16.5142 4.42097 17.0885 4.42097H21.1926C21.2486 4.42097 21.2906 4.44897 21.3466 4.44897C21.4167 4.46297 21.4867 4.46297 21.5567 4.49097C21.6268 4.51897 21.6828 4.56097 21.7528 4.60297C21.7949 4.63097 21.8369 4.64497 21.8789 4.67297C21.8929 4.68697 21.8929 4.70097 21.9069 4.70097C21.9629 4.75697 22.005 4.81297 22.047 4.86897C22.089 4.92497 22.131 4.96697 22.145 5.02297C22.173 5.07897 22.173 5.13497 22.1871 5.20497C22.2011 5.27497 22.2291 5.34497 22.2291 5.42897C22.2291 5.44297 22.2431 5.45697 22.2431 5.47097V9.57297H22.2291Z" fill="#DB3A3A"/>
</svg>
