<svg width="19" height="20" viewBox="0 0 19 20" fill="none" xmlns="http://www.w3.org/2000/svg">
<path d="M1.56667 7.06022H17.4333M1.56667 12.7269H17.4333M9.02778 1.39355C7.43671 3.94319 6.59319 6.8882 6.59319 9.89355C6.59319 12.8989 7.43671 15.8439 9.02778 18.3936M9.97222 1.39355C11.5633 3.94319 12.4068 6.8882 12.4068 9.89355C12.4068 12.8989 11.5633 15.8439 9.97222 18.3936M18 9.89355C18 14.588 14.1944 18.3936 9.5 18.3936C4.80558 18.3936 1 14.588 1 9.89355C1 5.19913 4.80558 1.39355 9.5 1.39355C14.1944 1.39355 18 5.19913 18 9.89355Z" stroke="#DC8400" stroke-width="1.71847" stroke-linecap="round" stroke-linejoin="round"/>
</svg>
