<svg width="35" height="32" viewBox="0 0 35 32" fill="none" xmlns="http://www.w3.org/2000/svg">
<path d="M9.25 5.93151V6.93151C9.60508 6.93151 9.93354 6.74321 10.113 6.43679L9.25 5.93151ZM12.1375 1V0C11.7824 0 11.454 0.188298 11.2745 0.494721L12.1375 1ZM22.8625 1L23.7255 0.494721C23.546 0.188299 23.2176 0 22.8625 0V1ZM25.75 5.93151L24.887 6.43679C25.0665 6.74321 25.3949 6.93151 25.75 6.93151V5.93151ZM2 26.8904V10.0411H0V26.8904H2ZM5.125 6.93151H9.25V4.93151H5.125V6.93151ZM10.113 6.43679L13.0005 1.50528L11.2745 0.494721L8.38704 5.42623L10.113 6.43679ZM12.1375 2H22.8625V0H12.1375V2ZM21.9995 1.50528L24.887 6.43679L26.613 5.42623L23.7255 0.494721L21.9995 1.50528ZM25.75 6.93151H29.875V4.93151H25.75V6.93151ZM33 10.0411V26.8904H35V10.0411H33ZM33 26.8904C33 28.6043 31.6044 30 29.875 30V32C32.7019 32 35 29.7159 35 26.8904H33ZM29.875 6.93151C31.6044 6.93151 33 8.32724 33 10.0411H35C35 7.21562 32.7019 4.93151 29.875 4.93151V6.93151ZM2 10.0411C2 8.32724 3.39558 6.93151 5.125 6.93151V4.93151C2.29807 4.93151 0 7.21562 0 10.0411H2ZM5.125 30C3.39558 30 2 28.6043 2 26.8904H0C0 29.7159 2.29807 32 5.125 32V30ZM22.6875 17.4384C22.6875 20.287 20.3685 22.6027 17.5 22.6027V24.6027C21.466 24.6027 24.6875 21.3987 24.6875 17.4384H22.6875ZM17.5 22.6027C14.6315 22.6027 12.3125 20.287 12.3125 17.4384H10.3125C10.3125 21.3987 13.534 24.6027 17.5 24.6027V22.6027ZM12.3125 17.4384C12.3125 14.5897 14.6315 12.274 17.5 12.274V10.274C13.534 10.274 10.3125 13.4781 10.3125 17.4384H12.3125ZM17.5 12.274C20.3685 12.274 22.6875 14.5897 22.6875 17.4384H24.6875C24.6875 13.4781 21.466 10.274 17.5 10.274V12.274ZM29.875 30H5.125V32H29.875V30Z" fill="white"/>
</svg>
