<svg width="29" height="34" viewBox="0 0 29 34" fill="none" xmlns="http://www.w3.org/2000/svg">
<path d="M25.4874 6.39416L25.4874 6.39418L25.4947 6.39717C25.8006 6.52263 26.1557 6.81533 26.4404 7.24673C26.7245 7.67737 26.8613 8.12979 26.8613 8.47629V15.5551C26.8613 22.831 21.6503 29.6922 14.5477 31.6926C14.2619 31.7716 13.9425 31.7716 13.6567 31.6926C6.55407 29.6922 1.34307 22.831 1.34307 15.5551V8.47629C1.34307 8.12952 1.48004 7.67623 1.76372 7.24416C2.04823 6.81082 2.40119 6.5188 2.69957 6.39481L2.70112 6.39416L11.5155 2.7183C11.5158 2.7182 11.516 2.71811 11.5162 2.71802C13.1642 2.0332 15.0242 2.03319 16.6723 2.71798C16.6725 2.71809 16.6728 2.71819 16.673 2.7183L25.4874 6.39416ZM16.6323 22.6178V19.253C18.2769 18.3475 19.4021 16.5965 19.4021 14.5554C19.4021 11.6121 17.0516 9.18108 14.1022 9.18108C11.1528 9.18108 8.80228 11.6121 8.80228 14.5554C8.80228 16.5805 9.92569 18.3426 11.5721 19.2521V22.6178C11.5721 23.997 12.688 25.1702 14.1022 25.1702C15.5163 25.1702 16.6323 23.997 16.6323 22.6178Z" stroke="#4F4F4F" stroke-width="2.68613"/>
</svg>
